<?xml version="1.0" standalone="no"?>
<!DOCTYPE svg PUBLIC "-//W3C//DTD SVG 20010904//EN"
 "http://www.w3.org/TR/2001/REC-SVG-20010904/DTD/svg10.dtd">
<svg version="1.0" xmlns="http://www.w3.org/2000/svg"
 width="560.000000pt" height="560.000000pt" viewBox="0 0 560.000000 560.000000"
 preserveAspectRatio="xMidYMid meet">
<metadata>
Created by potrace 1.11, written by Peter Selinger 2001-2013
</metadata>
<g transform="translate(0.000000,560.000000) scale(0.100000,-0.100000)"
fill="#000000" stroke="none">
<path d="M2529 5285 c-242 -41 -471 -143 -644 -288 -164 -138 -280 -285 -374
-473 -68 -137 -93 -212 -126 -379 l-24 -120 -1 -950 c0 -522 -3 -993 -5 -1045
-7 -161 -16 -304 -20 -325 -2 -11 -7 -58 -10 -104 -3 -46 -7 -87 -9 -90 -2 -3
-7 -37 -10 -76 -15 -167 -14 -165 -113 -269 -186 -194 -303 -416 -364 -689
-16 -68 -22 -142 -26 -284 l-5 -193 2001 0 2001 0 0 145 0 145 33 52 c82 132
118 243 122 383 6 190 -15 260 -180 581 -65 126 -160 312 -213 414 -276 538
-330 659 -378 848 -27 106 -50 237 -58 332 -10 122 -7 1072 4 1135 25 139 -3
368 -62 525 -101 265 -248 421 -478 507 -80 30 -245 41 -306 19 l-38 -13 -62
62 c-67 68 -145 112 -254 141 -83 22 -297 27 -401 9z"/>
</g>
</svg>
